<svg xmlns="http://www.w3.org/2000/svg" width="152.996" height="22.105" viewBox="0 0 152.996 22.105">
  <g id="Grupo_188" data-name="Grupo 188" transform="translate(-883.502 -438.403)">
    <path id="Trazado_285" data-name="Trazado 285" d="M892.233,449.787H887.7l-2.388,4.775H887.1l-.045.42H883.5l.044-.42h1.193l7.6-14.987H895l2.167,14.987h1.3l-.045.42h-6.9l.044-.42h1.194Zm-4.288-.486h4.244l-.818-6.7Z" fill="#fff"/>
    <path id="Trazado_286" data-name="Trazado 286" d="M905.584,452.97c0-1.215-.995-1.5-2.476-2.056-1.26-.464-2.631-1.193-2.631-3.028,0-2.431,2.343-3.647,5.394-3.647,1.791,0,3.957.287,3.957,2.21a1.631,1.631,0,0,1-1.835,1.658c-.774,0-1.5-.4-1.5-1.061a1.623,1.623,0,0,1,.331-1.039h.708a1.341,1.341,0,0,0,.133-.53c0-.509-.487-.774-1.482-.774-1.657,0-2.343.707-2.343,1.481,0,1.083.774,1.393,2.233,1.967,1.481.575,3.117,1.15,3.117,3.007,0,2.7-2.5,4.045-5.792,4.045-2.476,0-4.134-.774-4.134-2.409a1.725,1.725,0,0,1,1.9-1.835,1.325,1.325,0,0,1,1.46,1.37,2.333,2.333,0,0,1-.2.907h-.885a1.025,1.025,0,0,0-.088.42c0,.574.53,1.061,1.768,1.061C905.141,454.717,905.584,453.7,905.584,452.97Z" fill="#fff"/>
    <path id="Trazado_287" data-name="Trazado 287" d="M920.857,446.737c0,2.166-2.365,2.807-4.421,3.094a13.442,13.442,0,0,1-1.724.111c-.31,3.117.309,4.465,1.857,4.465,1.083,0,2.277-.774,3.05-3.183l.442.133c-.817,2.719-2.431,3.846-5.084,3.846-2.807,0-4.465-1.5-4.465-4.112,0-4.531,2.741-6.852,6.654-6.852C919.664,444.239,920.857,445.1,920.857,446.737Zm-3.89-2.078c-1.194,0-1.879,2.188-2.211,4.863,1.5-.066,2.874-.8,2.874-3.515C917.63,445.189,917.5,444.659,916.967,444.659Z" fill="#fff"/>
    <path id="Trazado_288" data-name="Trazado 288" d="M923.42,458.607c-.2.907.244,1.393,1.238,1.393,1.7,0,2.631-1.194,3.581-5.04.133-.575.222-.906.376-1.636l-.088-.044a3.548,3.548,0,0,1-3.4,1.923c-2.277,0-3.493-1.238-3.493-3.78,0-3.338,1.282-7.184,5.3-7.184a2.561,2.561,0,0,1,2.586,1.614l.31-1.3a26.366,26.366,0,0,0,4.045-.2c-.464,2.255-.752,3.4-1.636,9.218-.707,4.686-3.536,6.941-7.515,6.941-1.946,0-3.935-.773-3.935-2.564a2,2,0,0,1,2.056-2.166c1.1,0,2.122.641,1.834,2.453Zm5.018-6.565a15.27,15.27,0,0,0,.818-4.731c0-1.436-.486-2.321-1.26-2.321-.751,0-1.26.8-1.658,2.255a21.164,21.164,0,0,0-.8,5.46c0,.818.177,1.636.995,1.636C927.2,454.341,927.886,453.656,928.438,452.042Z" fill="#fff"/>
    <path id="Trazado_289" data-name="Trazado 289" d="M936.771,444.858h-1.5l.066-.4h5.659c-.951,4.134-1.5,6.631-1.746,8.223-.089.553-.221,1.282.531,1.282.972,0,2.1-2.277,2.7-5.482a23.89,23.89,0,0,0,.487-3.8,41.469,41.469,0,0,0,4.42-.265c-.552,2.674-1.326,6.521-1.569,8.532-.088.73-.177,1.415.509,1.415.4,0,.862-.332,1.458-1.238l.354.265a3.429,3.429,0,0,1-3.183,1.813c-2.476,0-3.294-1.26-2.542-3.78l-.133-.044c-.8,2.144-1.9,3.824-4.443,3.824-2.1,0-2.785-1.459-2.431-3.36C935.754,449.964,936.484,446.206,936.771,444.858Z" fill="#fff"/>
    <path id="Trazado_290" data-name="Trazado 290" d="M949.79,450.627l.8-5.769h-1.5l.067-.4h5.46l-.951,4.156.111.022c.641-1.7,2.232-4.4,4.708-4.4a1.868,1.868,0,0,1,2.056,1.967,1.983,1.983,0,0,1-2.1,2.144,3.3,3.3,0,0,1-1.525-.375l-.133-1.835c-1.194.044-2.365,1.658-2.918,4.067a23.119,23.119,0,0,0-.619,4.664,35.57,35.57,0,0,0-4.443.288Z" fill="#fff"/>
    <path id="Trazado_291" data-name="Trazado 291" d="M973.574,453.324a3.327,3.327,0,0,1-2.962,1.879c-2.189,0-3.007-1.105-2.653-2.9l-.11-.022c-.6,1.724-1.724,2.918-3.647,2.918-2.565,0-3.56-1.481-3.56-3.846,0-4.068,1.857-7.118,5.438-7.118,1.636,0,2.144.619,2.476,1.459l.309-1.172a26.347,26.347,0,0,0,4.046-.177c-.553,2.719-1.128,5.283-1.614,8.489a6.24,6.24,0,0,0-.088.795c0,.575.265.708.574.708.332,0,.818-.221,1.459-1.216Zm-6.057-1.5a17.7,17.7,0,0,0,.774-5.151c0-1.326-.619-1.834-1.238-1.834-.663,0-1.127.619-1.569,2.166a24.165,24.165,0,0,0-.885,5.725c0,.752.089,1.614.951,1.614C966.235,454.341,966.987,453.567,967.517,451.821Z" fill="#fff"/>
    <path id="Trazado_292" data-name="Trazado 292" d="M985.974,447.223c-.376,2.1-.729,3.935-1.017,5.615a6.25,6.25,0,0,0-.088.795c0,.575.265.708.575.708.331,0,.818-.221,1.459-1.216l.331.2a3.389,3.389,0,0,1-3.006,1.879c-2.189,0-3.007-1.105-2.653-2.9l-.11-.022c-.6,1.724-1.725,2.918-3.648,2.918-2.564,0-3.559-1.481-3.559-3.846,0-4.068,1.857-7.118,5.438-7.118a2.353,2.353,0,0,1,2.542,1.7l1.084-7.14h-1.437l.066-.4h5.615Zm-4.841,4.6a17.7,17.7,0,0,0,.774-5.151c0-1.326-.619-1.834-1.238-1.834-.663,0-1.128.619-1.569,2.166a24.165,24.165,0,0,0-.885,5.725c0,.752.089,1.614.951,1.614C979.851,454.341,980.6,453.567,981.133,451.821Z" fill="#fff"/>
    <path id="Trazado_293" data-name="Trazado 293" d="M987.9,451.047c0-3.957,2.255-6.808,6.5-6.808,2.94,0,4.531,1.193,4.531,3.979,0,4.642-2.63,6.985-6.476,6.985C989.4,455.2,987.9,453.788,987.9,451.047Zm7.295-4.863c0-.995-.266-1.547-.907-1.547-1.37,0-1.746,1.7-2.343,5.238a22.274,22.274,0,0,0-.353,3.449c0,1.017.265,1.481.994,1.481,1.238,0,1.57-1.216,2.255-5.3A22.371,22.371,0,0,0,995.191,446.184Z" fill="#fff"/>
    <path id="Trazado_294" data-name="Trazado 294" d="M1005.867,452.97c0-1.215-.995-1.5-2.476-2.056-1.26-.464-2.63-1.193-2.63-3.028,0-2.431,2.343-3.647,5.393-3.647,1.791,0,3.957.287,3.957,2.21a1.631,1.631,0,0,1-1.835,1.658c-.773,0-1.5-.4-1.5-1.061a1.624,1.624,0,0,1,.332-1.039h.707a1.324,1.324,0,0,0,.133-.53c0-.509-.487-.774-1.481-.774-1.658,0-2.343.707-2.343,1.481,0,1.083.773,1.393,2.232,1.967,1.481.575,3.117,1.15,3.117,3.007,0,2.7-2.5,4.045-5.792,4.045-2.475,0-4.133-.774-4.133-2.409a1.724,1.724,0,0,1,1.9-1.835,1.325,1.325,0,0,1,1.459,1.37,2.333,2.333,0,0,1-.2.907h-.884a1.012,1.012,0,0,0-.089.42c0,.574.531,1.061,1.769,1.061C1005.425,454.717,1005.867,453.7,1005.867,452.97Z" fill="#fff"/>
    <path id="Trazado_295" data-name="Trazado 295" d="M1015.194,452.882a2.141,2.141,0,0,1-2.254,2.321,1.518,1.518,0,0,1-1.658-1.636,2.182,2.182,0,0,1,2.232-2.166C1014.531,451.4,1015.194,451.931,1015.194,452.882Z" fill="#29abe2"/>
    <path id="Trazado_296" data-name="Trazado 296" d="M1021.636,453.288a2.126,2.126,0,0,1-2.194,1.8c-1.429,0-2.154-.715-2.154-1.97a2.891,2.891,0,0,1,3.154-3.093c1.123,0,1.572.562,1.572,1.154a.965.965,0,0,1-.98,1.071c-.551,0-.714-.336-.714-.643a1.344,1.344,0,0,1,.153-.54h.429a1.241,1.241,0,0,0,.112-.47c0-.316-.225-.388-.429-.388-.653,0-.98.766-1.153,1.715a9.07,9.07,0,0,0-.174,1.623c0,.847.256,1.184.807,1.184.459,0,1.071-.4,1.367-1.49Z" fill="#29abe2"/>
    <path id="Trazado_297" data-name="Trazado 297" d="M1022.249,453.165a2.853,2.853,0,0,1,3-3.144c1.358,0,2.092.552,2.092,1.838,0,2.143-1.214,3.225-2.99,3.225C1022.943,455.084,1022.249,454.431,1022.249,453.165Zm3.369-2.245c0-.46-.123-.715-.419-.715-.633,0-.806.786-1.082,2.419a10.312,10.312,0,0,0-.163,1.592c0,.47.122.684.459.684.572,0,.725-.561,1.041-2.449A10.353,10.353,0,0,0,1025.618,450.92Z" fill="#29abe2"/>
    <path id="Trazado_298" data-name="Trazado 298" d="M1031.538,451.461c.173-.664.194-.919-.092-.919-.224,0-.561.245-.949,1.061a8.969,8.969,0,0,0-.684,3.348,19.051,19.051,0,0,0-2.031.1l.429-1.9.418-2.848h-.7l.02-.183h2.583l-.4,1.694.03.01c.459-1.01.939-1.807,2.113-1.807.663,0,.929.337.929.838a2.481,2.481,0,0,1-.153.755l.04.01a2.222,2.222,0,0,1,1.981-1.6.941.941,0,0,1,1.061.96,3.772,3.772,0,0,1-.112.878l-.48,1.918a4.2,4.2,0,0,0-.122.643c0,.2.122.245.265.245s.388-.163.643-.592l.173.1a1.593,1.593,0,0,1-1.51.908c-.776,0-1.337-.327-1.337-1.194a10.685,10.685,0,0,1,.6-2.429c.174-.48.347-.919-.02-.919-.225,0-.521.317-.827.908a10.344,10.344,0,0,0-.837,3.5,17.215,17.215,0,0,0-1.939.1C1030.9,453.839,1031.211,452.737,1031.538,451.461Z" fill="#29abe2"/>
  </g>
</svg>
